<svg width="110" height="110" viewBox="0 0 110 110" fill="none" xmlns="http://www.w3.org/2000/svg">
<circle cx="55" cy="55" r="54.5" stroke="white"/>
<path d="M28.2583 62H26.4118L31.7527 47.4545H33.5708L38.9118 62H37.0652L32.7186 49.7557H32.6049L28.2583 62ZM28.9402 56.3182H36.3833V57.8807H28.9402V56.3182ZM42.0545 62L38.7306 51.0909H40.492L42.85 59.4432H42.9636L45.2931 51.0909H47.0829L49.3841 59.4148H49.4977L51.8556 51.0909H53.617L50.2931 62H48.6454L46.2591 53.6193H46.0886L43.7022 62H42.0545ZM59.0431 62.2557C58.3519 62.2557 57.7245 62.1255 57.161 61.8651C56.5976 61.5999 56.1502 61.2188 55.8187 60.7216C55.4873 60.2197 55.3216 59.6136 55.3216 58.9034C55.3216 58.2784 55.4447 57.7718 55.6909 57.3835C55.9371 56.9905 56.2662 56.6828 56.6781 56.4602C57.09 56.2377 57.5446 56.072 58.0417 55.9631C58.5436 55.8494 59.0479 55.7595 59.5545 55.6932C60.2174 55.608 60.7548 55.544 61.1667 55.5014C61.5834 55.4541 61.8864 55.3759 62.0758 55.267C62.2699 55.1581 62.367 54.9687 62.367 54.6989V54.642C62.367 53.9413 62.1752 53.3968 61.7917 53.0085C61.4129 52.6203 60.8377 52.4261 60.0659 52.4261C59.2657 52.4261 58.6383 52.6013 58.1838 52.9517C57.7292 53.3021 57.4096 53.6761 57.225 54.0739L55.6341 53.5057C55.9181 52.8428 56.2969 52.3267 56.7704 51.9574C57.2486 51.5833 57.7695 51.3229 58.3329 51.1761C58.9011 51.0246 59.4598 50.9489 60.0091 50.9489C60.3594 50.9489 60.7619 50.9915 61.2164 51.0767C61.6757 51.1572 62.1184 51.3253 62.5446 51.581C62.9754 51.8366 63.3329 52.2225 63.617 52.7386C63.9011 53.2547 64.0431 53.946 64.0431 54.8125V62H62.367V60.5227H62.2818C62.1681 60.7595 61.9788 61.0128 61.7136 61.2827C61.4484 61.5526 61.0957 61.7822 60.6554 61.9716C60.215 62.161 59.6776 62.2557 59.0431 62.2557ZM59.2988 60.75C59.9617 60.75 60.5204 60.6198 60.975 60.3594C61.4342 60.099 61.7799 59.7628 62.0119 59.3509C62.2486 58.9389 62.367 58.5057 62.367 58.0511V56.517C62.296 56.6023 62.1397 56.6804 61.8983 56.7514C61.6615 56.8177 61.3869 56.8769 61.0744 56.929C60.7666 56.9763 60.466 57.0189 60.1724 57.0568C59.8836 57.09 59.6492 57.1184 59.4693 57.142C59.0337 57.1989 58.6265 57.2912 58.2477 57.419C57.8736 57.5421 57.5706 57.7292 57.3386 57.9801C57.1113 58.2263 56.9977 58.5625 56.9977 58.9886C56.9977 59.571 57.2131 60.0114 57.644 60.3097C58.0796 60.6032 58.6312 60.75 59.2988 60.75ZM67.1025 62V51.0909H68.7218V52.7386H68.8354C69.0343 52.1989 69.3941 51.7609 69.915 51.4247C70.4358 51.0885 71.0229 50.9205 71.6763 50.9205C71.7994 50.9205 71.9533 50.9228 72.138 50.9276C72.3226 50.9323 72.4623 50.9394 72.557 50.9489V52.6534C72.5002 52.6392 72.37 52.6179 72.1664 52.5895C71.9675 52.5563 71.7568 52.5398 71.5343 52.5398C71.004 52.5398 70.5305 52.651 70.1138 52.8736C69.7019 53.0914 69.3752 53.3944 69.1337 53.7827C68.897 54.1662 68.7786 54.6042 68.7786 55.0966V62H67.1025ZM78.3311 62.2273C77.4221 62.2273 76.6195 61.9976 75.9235 61.5384C75.2275 61.0743 74.6829 60.4209 74.29 59.5781C73.897 58.7306 73.7005 57.7292 73.7005 56.5739C73.7005 55.428 73.897 54.4337 74.29 53.5909C74.6829 52.7481 75.2298 52.0971 75.9306 51.6378C76.6313 51.1785 77.441 50.9489 78.3596 50.9489C79.0698 50.9489 79.6309 51.0672 80.0428 51.304C80.4595 51.536 80.7767 51.8011 80.9945 52.0994C81.217 52.393 81.3899 52.6345 81.513 52.8239H81.655V47.4545H83.3311V62H81.7118V60.3239H81.513C81.3899 60.5227 81.2147 60.7737 80.9874 61.0767C80.7601 61.375 80.4358 61.6425 80.0144 61.8793C79.593 62.1113 79.0319 62.2273 78.3311 62.2273ZM78.5584 60.7216C79.2308 60.7216 79.7989 60.5464 80.263 60.196C80.727 59.8409 81.0797 59.3509 81.3212 58.7259C81.5627 58.0961 81.6834 57.3693 81.6834 56.5455C81.6834 55.7311 81.565 55.0185 81.3283 54.4077C81.0916 53.7921 80.7412 53.3139 80.2772 52.973C79.8132 52.6274 79.2402 52.4545 78.5584 52.4545C77.8482 52.4545 77.2563 52.6368 76.7828 53.0014C76.3141 53.3613 75.9614 53.8513 75.7246 54.4716C75.4926 55.0871 75.3766 55.7784 75.3766 56.5455C75.3766 57.322 75.495 58.0275 75.7317 58.6619C75.9732 59.2917 76.3283 59.7936 76.7971 60.1676C77.2705 60.5369 77.8577 60.7216 78.5584 60.7216Z" fill="white"/>
</svg>
