<svg width="148" height="148" viewBox="0 0 148 148" fill="none" xmlns="http://www.w3.org/2000/svg">
<circle cx="74" cy="74" r="73.5" stroke="white"/>
<path d="M48.2536 69V54.4545H50.0149V67.4375H56.7763V69H48.2536ZM71.2099 61.7273C71.2099 63.2614 70.9329 64.5871 70.3789 65.7045C69.8249 66.822 69.065 67.6837 68.0991 68.2898C67.1332 68.8958 66.0299 69.1989 64.7894 69.1989C63.5489 69.1989 62.4457 68.8958 61.4798 68.2898C60.5138 67.6837 59.7539 66.822 59.1999 65.7045C58.646 64.5871 58.369 63.2614 58.369 61.7273C58.369 60.1932 58.646 58.8674 59.1999 57.75C59.7539 56.6326 60.5138 55.7708 61.4798 55.1648C62.4457 54.5587 63.5489 54.2557 64.7894 54.2557C66.0299 54.2557 67.1332 54.5587 68.0991 55.1648C69.065 55.7708 69.8249 56.6326 70.3789 57.75C70.9329 58.8674 71.2099 60.1932 71.2099 61.7273ZM69.5053 61.7273C69.5053 60.4678 69.2946 59.4048 68.8732 58.5384C68.4566 57.6719 67.8907 57.0161 67.1758 56.571C66.4656 56.1259 65.6701 55.9034 64.7894 55.9034C63.9087 55.9034 63.1109 56.1259 62.396 56.571C61.6857 57.0161 61.1199 57.6719 60.6985 58.5384C60.2818 59.4048 60.0735 60.4678 60.0735 61.7273C60.0735 62.9867 60.2818 64.0497 60.6985 64.9162C61.1199 65.7827 61.6857 66.4384 62.396 66.8835C63.1109 67.3286 63.9087 67.5511 64.7894 67.5511C65.6701 67.5511 66.4656 67.3286 67.1758 66.8835C67.8907 66.4384 68.4566 65.7827 68.8732 64.9162C69.2946 64.0497 69.5053 62.9867 69.5053 61.7273ZM84.1147 59C83.9585 58.5218 83.7525 58.0933 83.4968 57.7145C83.2459 57.331 82.9452 57.0043 82.5948 56.7344C82.2492 56.4645 81.8562 56.2585 81.4158 56.1165C80.9755 55.9744 80.4925 55.9034 79.967 55.9034C79.1052 55.9034 78.3216 56.1259 77.6161 56.571C76.9106 57.0161 76.3496 57.6719 75.9329 58.5384C75.5162 59.4048 75.3079 60.4678 75.3079 61.7273C75.3079 62.9867 75.5186 64.0497 75.94 64.9162C76.3614 65.7827 76.9319 66.4384 77.6516 66.8835C78.3713 67.3286 79.181 67.5511 80.0806 67.5511C80.9139 67.5511 81.6478 67.3736 82.2823 67.0185C82.9215 66.6586 83.4187 66.152 83.7738 65.4986C84.1336 64.8404 84.3136 64.0663 84.3136 63.1761L84.8533 63.2898H80.4783V61.7273H86.0181V63.2898C86.0181 64.4877 85.7624 65.5294 85.2511 66.4148C84.7444 67.3002 84.0437 67.9867 83.1488 68.4744C82.2586 68.9574 81.2359 69.1989 80.0806 69.1989C78.7927 69.1989 77.6611 68.8958 76.6857 68.2898C75.7151 67.6837 74.9575 66.822 74.413 65.7045C73.8732 64.5871 73.6033 63.2614 73.6033 61.7273C73.6033 60.5767 73.7572 59.5421 74.065 58.6236C74.3775 57.7003 74.8178 56.9143 75.386 56.2656C75.9542 55.617 76.6265 55.1198 77.4031 54.7741C78.1796 54.4285 79.0342 54.2557 79.967 54.2557C80.734 54.2557 81.449 54.3717 82.1119 54.6037C82.7795 54.831 83.3737 55.1553 83.8945 55.5767C84.4201 55.9934 84.8581 56.4929 85.2085 57.0753C85.5588 57.6529 85.8003 58.2945 85.9329 59H84.1147ZM101.308 61.7273C101.308 63.2614 101.031 64.5871 100.477 65.7045C99.9226 66.822 99.1626 67.6837 98.1967 68.2898C97.2308 68.8958 96.1276 69.1989 94.8871 69.1989C93.6465 69.1989 92.5433 68.8958 91.5774 68.2898C90.6115 67.6837 89.8516 66.822 89.2976 65.7045C88.7436 64.5871 88.4666 63.2614 88.4666 61.7273C88.4666 60.1932 88.7436 58.8674 89.2976 57.75C89.8516 56.6326 90.6115 55.7708 91.5774 55.1648C92.5433 54.5587 93.6465 54.2557 94.8871 54.2557C96.1276 54.2557 97.2308 54.5587 98.1967 55.1648C99.1626 55.7708 99.9226 56.6326 100.477 57.75C101.031 58.8674 101.308 60.1932 101.308 61.7273ZM99.603 61.7273C99.603 60.4678 99.3923 59.4048 98.9709 58.5384C98.5542 57.6719 97.9884 57.0161 97.2734 56.571C96.5632 56.1259 95.7678 55.9034 94.8871 55.9034C94.0064 55.9034 93.2086 56.1259 92.4936 56.571C91.7834 57.0161 91.2176 57.6719 90.7962 58.5384C90.3795 59.4048 90.1712 60.4678 90.1712 61.7273C90.1712 62.9867 90.3795 64.0497 90.7962 64.9162C91.2176 65.7827 91.7834 66.4384 92.4936 66.8835C93.2086 67.3286 94.0064 67.5511 94.8871 67.5511C95.7678 67.5511 96.5632 67.3286 97.2734 66.8835C97.9884 66.4384 98.5542 65.7827 98.9709 64.9162C99.3923 64.0497 99.603 62.9867 99.603 61.7273ZM46.5206 83H44.7592C44.6551 82.4934 44.4728 82.0483 44.2124 81.6648C43.9567 81.2812 43.6442 80.9593 43.2749 80.6989C42.9103 80.4337 42.5054 80.2348 42.0604 80.1023C41.6153 79.9697 41.1513 79.9034 40.6683 79.9034C39.7876 79.9034 38.9898 80.1259 38.2749 80.571C37.5646 81.0161 36.9988 81.6719 36.5774 82.5384C36.1607 83.4048 35.9524 84.4678 35.9524 85.7273C35.9524 86.9867 36.1607 88.0497 36.5774 88.9162C36.9988 89.7827 37.5646 90.4384 38.2749 90.8835C38.9898 91.3286 39.7876 91.5511 40.6683 91.5511C41.1513 91.5511 41.6153 91.4848 42.0604 91.3523C42.5054 91.2197 42.9103 91.0232 43.2749 90.7628C43.6442 90.4976 43.9567 90.1733 44.2124 89.7898C44.4728 89.4015 44.6551 88.9564 44.7592 88.4545H46.5206C46.388 89.1979 46.1465 89.8632 45.7962 90.4503C45.4458 91.0374 45.0102 91.5369 44.4893 91.9489C43.9685 92.3561 43.3838 92.6662 42.7351 92.8793C42.0911 93.0923 41.4022 93.1989 40.6683 93.1989C39.4278 93.1989 38.3246 92.8958 37.3587 92.2898C36.3928 91.6837 35.6328 90.822 35.0788 89.7045C34.5249 88.5871 34.2479 87.2614 34.2479 85.7273C34.2479 84.1932 34.5249 82.8674 35.0788 81.75C35.6328 80.6326 36.3928 79.7708 37.3587 79.1648C38.3246 78.5587 39.4278 78.2557 40.6683 78.2557C41.4022 78.2557 42.0911 78.3622 42.7351 78.5753C43.3838 78.7884 43.9685 79.1009 44.4893 79.5128C45.0102 79.92 45.4458 80.4171 45.7962 81.0043C46.1465 81.5866 46.388 82.2519 46.5206 83ZM49.3668 93V78.4545H51.1282V91.4375H57.8896V93H49.3668ZM62.3782 78.4545V93H60.6168V78.4545H62.3782ZM65.9098 93V78.4545H74.6882V80.017H67.6712V84.9318H74.2337V86.4943H67.6712V91.4375H74.8018V93H65.9098ZM89.397 78.4545V93H87.6925L79.7663 81.5795H79.6243V93H77.8629V78.4545H79.5675L87.522 89.9034H87.6641V78.4545H89.397ZM92.1261 80.017V78.4545H103.035V80.017H98.4613V93H96.6999V80.017H92.1261ZM105.754 93V78.4545H114.532V80.017H107.515V84.9318H114.077V86.4943H107.515V91.4375H114.646V93H105.754Z" fill="white"/>
</svg>
