<svg width="152" height="88" viewBox="0 0 152 88" fill="none" xmlns="http://www.w3.org/2000/svg">
<rect x="0.5" y="0.5" width="151" height="87" stroke="#687B8E"/>
<path d="M43.6919 40V21.8182H45.8936V38.0469H54.3453V40H43.6919ZM72.3873 30.9091C72.3873 32.8267 72.0411 34.4839 71.3486 35.8807C70.6562 37.2775 69.7062 38.3546 68.4988 39.1122C67.2915 39.8698 65.9124 40.2486 64.3618 40.2486C62.8111 40.2486 61.4321 39.8698 60.2247 39.1122C59.0173 38.3546 58.0674 37.2775 57.3749 35.8807C56.6824 34.4839 56.3362 32.8267 56.3362 30.9091C56.3362 28.9915 56.6824 27.3343 57.3749 25.9375C58.0674 24.5407 59.0173 23.4635 60.2247 22.706C61.4321 21.9484 62.8111 21.5696 64.3618 21.5696C65.9124 21.5696 67.2915 21.9484 68.4988 22.706C69.7062 23.4635 70.6562 24.5407 71.3486 25.9375C72.0411 27.3343 72.3873 28.9915 72.3873 30.9091ZM70.2567 30.9091C70.2567 29.3348 69.9933 28.006 69.4665 26.9229C68.9457 25.8398 68.2384 25.0201 67.3447 24.4638C66.4569 23.9074 65.4626 23.6293 64.3618 23.6293C63.2609 23.6293 62.2636 23.9074 61.3699 24.4638C60.4822 25.0201 59.7749 25.8398 59.2481 26.9229C58.7273 28.006 58.4669 29.3348 58.4669 30.9091C58.4669 32.4834 58.7273 33.8121 59.2481 34.8952C59.7749 35.9783 60.4822 36.7981 61.3699 37.3544C62.2636 37.9107 63.2609 38.1889 64.3618 38.1889C65.4626 38.1889 66.4569 37.9107 67.3447 37.3544C68.2384 36.7981 68.9457 35.9783 69.4665 34.8952C69.9933 33.8121 70.2567 32.4834 70.2567 30.9091ZM88.5184 27.5C88.3231 26.9022 88.0656 26.3666 87.746 25.8931C87.4323 25.4137 87.0565 25.0053 86.6185 24.668C86.1865 24.3306 85.6952 24.0732 85.1448 23.8956C84.5944 23.718 83.9907 23.6293 83.3337 23.6293C82.2565 23.6293 81.277 23.9074 80.3952 24.4638C79.5133 25.0201 78.8119 25.8398 78.2911 26.9229C77.7703 28.006 77.5099 29.3348 77.5099 30.9091C77.5099 32.4834 77.7732 33.8121 78.3 34.8952C78.8267 35.9783 79.5399 36.7981 80.4395 37.3544C81.3392 37.9107 82.3512 38.1889 83.4758 38.1889C84.5174 38.1889 85.4348 37.967 86.2279 37.5231C87.0269 37.0733 87.6483 36.44 88.0922 35.6232C88.5421 34.8005 88.767 33.8329 88.767 32.7202L89.4417 32.8622H83.9729V30.9091H90.8976V32.8622C90.8976 34.3596 90.578 35.6617 89.9388 36.7685C89.3055 37.8752 88.4296 38.7334 87.311 39.343C86.1983 39.9467 84.9199 40.2486 83.4758 40.2486C81.8659 40.2486 80.4514 39.8698 79.2322 39.1122C78.0189 38.3546 77.0719 37.2775 76.3912 35.8807C75.7165 34.4839 75.3792 32.8267 75.3792 30.9091C75.3792 29.4709 75.5715 28.1777 75.9562 27.0295C76.3469 25.8754 76.8973 24.8929 77.6075 24.082C78.3177 23.2712 79.1582 22.6497 80.1288 22.2177C81.0995 21.7856 82.1678 21.5696 83.3337 21.5696C84.2925 21.5696 85.1862 21.7146 86.0148 22.0046C86.8493 22.2887 87.5921 22.6941 88.2432 23.2209C88.9001 23.7417 89.4476 24.3661 89.8856 25.0941C90.3235 25.8162 90.6254 26.6181 90.7911 27.5H88.5184ZM110.009 30.9091C110.009 32.8267 109.663 34.4839 108.971 35.8807C108.278 37.2775 107.328 38.3546 106.121 39.1122C104.914 39.8698 103.535 40.2486 101.984 40.2486C100.433 40.2486 99.0542 39.8698 97.8468 39.1122C96.6394 38.3546 95.6895 37.2775 94.997 35.8807C94.3045 34.4839 93.9583 32.8267 93.9583 30.9091C93.9583 28.9915 94.3045 27.3343 94.997 25.9375C95.6895 24.5407 96.6394 23.4635 97.8468 22.706C99.0542 21.9484 100.433 21.5696 101.984 21.5696C103.535 21.5696 104.914 21.9484 106.121 22.706C107.328 23.4635 108.278 24.5407 108.971 25.9375C109.663 27.3343 110.009 28.9915 110.009 30.9091ZM107.879 30.9091C107.879 29.3348 107.615 28.006 107.089 26.9229C106.568 25.8398 105.86 25.0201 104.967 24.4638C104.079 23.9074 103.085 23.6293 101.984 23.6293C100.883 23.6293 99.8857 23.9074 98.992 24.4638C98.1042 25.0201 97.397 25.8398 96.8702 26.9229C96.3494 28.006 96.089 29.3348 96.089 30.9091C96.089 32.4834 96.3494 33.8121 96.8702 34.8952C97.397 35.9783 98.1042 36.7981 98.992 37.3544C99.8857 37.9107 100.883 38.1889 101.984 38.1889C103.085 38.1889 104.079 37.9107 104.967 37.3544C105.86 36.7981 106.568 35.9783 107.089 34.8952C107.615 33.8121 107.879 32.4834 107.879 30.9091ZM22.354 70V51.8182H28.4975C29.9239 51.8182 31.0898 52.0756 31.9954 52.5906C32.9068 53.0996 33.5816 53.7891 34.0195 54.6591C34.4575 55.5291 34.6765 56.4998 34.6765 57.571C34.6765 58.6423 34.4575 59.6159 34.0195 60.4918C33.5875 61.3678 32.9187 62.0662 32.0131 62.587C31.1076 63.1019 29.9476 63.3594 28.533 63.3594H24.1296V61.4062H28.462C29.4386 61.4062 30.2228 61.2376 30.8146 60.9002C31.4065 60.5629 31.8356 60.1071 32.1019 59.533C32.3742 58.953 32.5103 58.299 32.5103 57.571C32.5103 56.843 32.3742 56.192 32.1019 55.6179C31.8356 55.0438 31.4035 54.594 30.8058 54.2685C30.208 53.937 29.4149 53.7713 28.4265 53.7713H24.5558V70H22.354ZM37.1135 70H34.8052L41.4814 51.8182H43.7541L50.4302 70H48.122L42.6887 54.6946H42.5467L37.1135 70ZM37.9657 62.8977H47.2697V64.8509H37.9657V62.8977ZM53.2623 70V51.8182H59.4057C60.8262 51.8182 61.9921 52.0608 62.9036 52.5462C63.815 53.0256 64.4898 53.6855 64.9277 54.5259C65.3657 55.3664 65.5847 56.3222 65.5847 57.3935C65.5847 58.4647 65.3657 59.4147 64.9277 60.2433C64.4898 61.0719 63.818 61.7229 62.9125 62.1964C62.0069 62.6639 60.8498 62.8977 59.4412 62.8977H54.4696V60.9091H59.3702C60.3408 60.9091 61.1221 60.767 61.714 60.483C62.3117 60.1989 62.7438 59.7964 63.0101 59.2756C63.2824 58.7488 63.4185 58.1214 63.4185 57.3935C63.4185 56.6655 63.2824 56.0292 63.0101 55.4847C62.7379 54.9402 62.3029 54.52 61.7051 54.2241C61.1073 53.9222 60.3172 53.7713 59.3347 53.7713H55.464V70H53.2623ZM61.8205 61.8324L66.2949 70H63.7381L59.3347 61.8324H61.8205ZM68.2591 53.7713V51.8182H81.8955V53.7713H76.1782V70H73.9765V53.7713H68.2591ZM99.7111 51.8182V70H97.5804L87.6728 55.7244H87.4952V70H85.2935V51.8182H87.4242L97.3674 66.1293H97.5449V51.8182H99.7111ZM104.117 70V51.8182H115.09V53.7713H106.318V59.9148H114.522V61.8679H106.318V68.0469H115.232V70H104.117ZM119.058 70V51.8182H125.202C126.622 51.8182 127.788 52.0608 128.699 52.5462C129.611 53.0256 130.286 53.6855 130.724 54.5259C131.162 55.3664 131.381 56.3222 131.381 57.3935C131.381 58.4647 131.162 59.4147 130.724 60.2433C130.286 61.0719 129.614 61.7229 128.708 62.1964C127.803 62.6639 126.646 62.8977 125.237 62.8977H120.266V60.9091H125.166C126.137 60.9091 126.918 60.767 127.51 60.483C128.108 60.1989 128.54 59.7964 128.806 59.2756C129.078 58.7488 129.214 58.1214 129.214 57.3935C129.214 56.6655 129.078 56.0292 128.806 55.4847C128.534 54.9402 128.099 54.52 127.501 54.2241C126.903 53.9222 126.113 53.7713 125.131 53.7713H121.26V70H119.058ZM127.616 61.8324L132.091 70H129.534L125.131 61.8324H127.616Z" fill="#687B8E"/>
</svg>
